<?xml version="1.0" encoding="UTF-8"?>
<!DOCTYPE svg PUBLIC "-//W3C//DTD SVG 1.1//EN" "http://www.w3.org/Graphics/SVG/1.1/DTD/svg11.dtd">
<!-- Creator: CorelDRAW 2020 (64-Bit) -->
<svg preserveAspectRatio="none" xmlns="http://www.w3.org/2000/svg" xml:space="preserve" width="254.749mm" height="55.7791mm" version="1.1" style="shape-rendering:geometricPrecision; text-rendering:geometricPrecision; image-rendering:optimizeQuality; fill-rule:evenodd; clip-rule:evenodd"
viewBox="0 0 3551.41 777.61"
 xmlns:xlink="http://www.w3.org/1999/xlink"
 xmlns:xodm="http://www.corel.com/coreldraw/odm/2003">
 <defs>
  <style type="text/css">
   <![CDATA[
    .fil2 {fill:black}
    .fil1 {fill:#1F4F25}
    .fil3 {fill:#459C46}
    .fil0 {fill:#ED2424}
   ]]>
  </style>
 </defs>
 <g id="Слой_x0020_1">
  <metadata id="CorelCorpID_0Corel-Layer"/>
  <path class="fil0" d="M585.18 91.41c-24.43,6.36 -43.5,14.08 -64.21,26.75 -20.71,12.67 -43.05,30.29 -62.21,49.91 -19.16,19.62 -35.15,41.23 -46.95,62.58 -11.81,21.34 -19.43,42.41 -23.88,62.67 -4.45,20.25 -5.72,39.69 -5.63,58.58 0.09,18.89 1.54,37.24 8.45,57.85 6.9,20.62 19.25,43.5 32.15,61.76 12.9,18.26 26.34,31.88 42.32,44.59 15.98,12.71 34.51,24.52 54.22,33.69 19.71,9.17 40.6,15.71 62.3,19.98 21.71,4.27 44.23,6.27 67.39,5.45 23.16,-0.82 46.95,-4.45 70.02,-10.63 23.07,-6.18 45.41,-14.89 66.3,-25.61 20.89,-10.72 40.33,-23.43 59.22,-39.42 18.89,-15.98 37.24,-35.24 51.86,-55.76 14.62,-20.53 25.52,-42.32 32.7,-62.67 7.18,-20.34 10.63,-39.24 11.53,-60.94 0.91,-21.71 -0.73,-46.23 -5.09,-67.75 -4.36,-21.52 -11.44,-40.05 -22.71,-58.58 -11.26,-18.53 -26.7,-37.05 -44.23,-53.22 -17.53,-16.17 -37.15,-29.97 -59.4,-40.51 -22.25,-10.54 -47.14,-17.8 -70.93,-21.43 -23.8,-3.63 -46.5,-3.63 -72.75,-1.13 -26.25,2.5 -56.04,7.49 -80.47,13.85z"/>
  <path class="fil1" d="M681.81 1c-2.09,0 -4.9,-0.5 -8.4,-0.41 -3.5,0.09 -7.67,0.77 -10.22,1.93 -2.54,1.16 -3.45,2.79 -3.59,4.84 -0.14,2.04 0.5,4.5 1.63,8.67 1.13,4.18 2.77,10.08 4.95,15.03 2.18,4.95 4.9,8.95 7.36,13.17 2.45,4.22 4.63,8.67 6.04,13.12 1.41,4.45 2.04,8.9 2.68,13.35 -7.63,-2.54 -15.26,-5.09 -22.98,-6.54 -7.72,-1.45 -15.53,-1.82 -25.57,-0.14 -10.04,1.68 -22.3,5.4 -31.83,8.49 -9.54,3.09 -16.35,5.54 -24.29,6.99 -7.95,1.45 -17.03,1.91 -27.57,0.5 -10.54,-1.41 -22.52,-4.68 -31.92,-6.81 -9.4,-2.13 -16.21,-3.13 -23.02,-4.13 4,4.72 7.99,9.44 13.26,13.94 5.27,4.49 11.81,8.76 21.16,12.62 9.35,3.86 21.52,7.31 32.83,9.72 11.31,2.41 21.75,3.77 32.01,4.36 10.26,0.59 20.34,0.41 31.61,-0.77 11.26,-1.18 23.7,-3.36 36.15,-5.54 -7.72,3.54 -15.44,7.08 -25.29,10.9 -9.85,3.81 -21.84,7.9 -32.38,12.44 -10.54,4.54 -19.62,9.54 -26.52,13.85 -6.9,4.31 -11.62,7.95 -15.94,12.17 -4.31,4.22 -8.22,9.04 -10.9,13.49 -2.68,4.45 -4.13,8.54 -5.59,12.62 6.09,-3.09 12.17,-6.18 19.62,-8.76 7.45,-2.59 16.26,-4.68 25.61,-6.67 9.36,-2 19.26,-3.91 28.38,-5.81 9.13,-1.91 17.48,-3.81 24.39,-6.18 6.9,-2.36 12.35,-5.18 17.57,-8.9 5.22,-3.72 10.22,-8.36 14.21,-12.31 4,-3.95 6.99,-7.22 9.99,-10.49 -1.73,3.9 -3.45,7.81 -7.58,13.49 -4.13,5.68 -10.67,13.12 -16.44,19.71 -5.77,6.58 -10.76,12.31 -13.8,16.62 -3.04,4.31 -4.13,7.22 -5.22,10.13 7.9,-4.09 15.8,-8.17 24.52,-11.85 8.72,-3.68 18.25,-6.95 27.29,-11.22 9.04,-4.27 17.57,-9.54 22.98,-14.81 5.4,-5.27 7.67,-10.54 8.86,-16.57 1.18,-6.04 1.27,-12.85 1.36,-19.66 7.54,-10.17 15.08,-20.34 19.57,-31.2 4.5,-10.85 5.95,-22.39 4.22,-32.79 -1.73,-10.4 -6.63,-19.66 -11.58,-26.41 -4.95,-6.74 -9.95,-10.96 -14.94,-15.19 -0.18,2.59 -0.36,5.17 0.55,8.1 0.91,2.93 2.91,6.2 5.18,10.19 2.27,4 4.81,8.72 6.08,12.85 1.27,4.13 1.27,7.67 -0.95,12.62 -2.22,4.95 -6.67,11.31 -11.99,16.62 -5.31,5.31 -11.49,9.58 -17.66,13.85 -0.64,-7.99 -1.27,-15.98 -2.41,-24.02 -1.14,-8.04 -2.77,-16.12 -4.5,-22.98 -1.73,-6.86 -3.54,-12.49 -4.77,-16.82 -1.23,-4.34 -1.86,-7.38 -2.59,-8.9 -0.73,-1.52 -1.54,-1.52 -2.36,-1.52 -0.82,0 -1.64,0 -2.73,0.25 -1.09,0.25 -2.45,0.75 -4.54,0.75z"/>
  <path class="fil2" d="M293.84 330.7l-275.56 0c-5.38,0 -10.76,0 -13.81,0.14 -3.05,0.14 -3.76,0.43 -4.11,1 -0.36,0.57 -0.36,1.44 -0.36,3.16 0,1.73 0,4.31 0.13,6.36 0.13,2.04 0.38,3.54 1.17,5.65 0.79,2.11 2.1,4.84 3.47,7.4 3.9,7.35 8.08,14.56 16.16,17.67l273.37 0c0.73,11.46 1.95,22.84 3.66,33.82l-181.06 0c-5.38,0 -10.76,0 -13.81,0.14 -3.05,0.14 -3.76,0.43 -4.11,1 -0.36,0.57 -0.36,1.44 -0.36,3.16 0,1.73 0,4.31 0.13,6.36 0.13,2.04 0.39,3.54 1.17,5.65 0.79,2.11 2.1,4.84 3.47,7.4 3.9,7.35 8.08,14.56 16.16,17.67l187.81 0c2.49,8.15 5.34,16.1 8.59,23.91 0.89,2.14 1.8,4.26 2.75,6.37l-63.66 0c-5.38,0 -10.76,0 -13.81,0.14 -3.05,0.14 -3.76,0.43 -4.11,1 -0.36,0.57 -0.36,1.44 -0.36,3.16 0,1.73 0,4.31 0.13,6.36 0.13,2.04 0.39,3.54 1.17,5.65 0.79,2.11 2.1,4.84 3.47,7.4 3.9,7.35 8.08,14.56 16.16,17.66l84.35 0c0.48,0.69 0.96,1.39 1.45,2.08 11,15.65 24.18,30.91 38.89,45.09 14.45,13.93 30.35,26.77 47.06,37.84 15.88,10.52 32.62,19.5 49.7,27.11 18.47,8.22 37.15,14.73 55.41,19.77 17.49,4.82 34.79,8.35 52.26,10.67 17.17,2.29 34.48,3.37 52.31,3.34 18.1,-0.03 36.51,-1.19 55.09,-3.61 17.99,-2.34 36.23,-5.85 54.62,-10.63 19.05,-4.95 38.18,-11.21 56.91,-19.24 19.31,-8.29 38.32,-18.43 56.57,-30.92 35.41,-24.25 66.53,-56.22 97.65,-88.2 14.23,-14.63 13.91,-38.02 -0.72,-52.25 -14.63,-14.23 -38.02,-13.91 -52.25,0.72 -28.46,29.24 -56.92,58.48 -86.36,78.64 -14.18,9.71 -28.91,17.57 -43.83,23.98 -15.51,6.66 -31.11,11.77 -46.49,15.77 -15.41,4.01 -30.66,6.94 -45.64,8.89 -15.61,2.03 -30.82,3.01 -45.54,3.03 -14.41,0.02 -28.57,-0.87 -42.76,-2.76 -13.88,-1.85 -27.83,-4.71 -42.13,-8.65 -15,-4.13 -30.18,-9.41 -44.99,-16 -13.25,-5.9 -26.37,-12.96 -38.99,-21.32 -13.04,-8.64 -25.42,-18.63 -36.64,-29.45 -11.16,-10.76 -21.2,-22.4 -29.63,-34.38 -8.09,-11.51 -14.59,-23.29 -19.72,-35.64 -5.18,-12.47 -9.03,-25.67 -11.75,-39.89 -2.85,-14.84 -4.5,-30.42 -5,-45.6 -0.52,-15.91 0.13,-31.44 1.91,-45.36 3.47,-27.11 11.84,-50.24 20.21,-73.37l0.06 -0.18 0.08 0.03 0 -0c6.88,-19.26 -3.17,-40.46 -22.44,-47.33 -4.11,-1.47 -8.32,-2.16 -12.45,-2.16l0 -0.01 -123.15 0c-20.47,0 -37.05,16.59 -37.05,37.05 0,20.47 16.59,37.05 37.05,37.05l72.2 0c-3.2,12.15 -5.9,25.17 -7.76,39.64 -1.15,8.98 -1.93,18.38 -2.35,28zm103.11 446.91l0 0c33.02,0 65.54,-27.02 72.26,-60.04l2.38 -11.66c6.72,-33.02 -14.79,-60.04 -47.81,-60.04l0 0c-33.02,0 -65.54,27.02 -72.26,60.04l-2.38 11.66c-6.72,33.02 14.79,60.04 47.81,60.04zm444.66 0l0 0c33.02,0 65.54,-27.02 72.26,-60.04l2.38 -11.66c6.72,-33.02 -14.79,-60.04 -47.81,-60.04l0 0c-33.02,0 -65.54,27.02 -72.26,60.04l-2.38 11.66c-6.72,33.02 14.79,60.04 47.81,60.04z"/>
  <path class="fil3" d="M1979.67 209.96l91.55 0 0 1.09 156.39 0 0 77.38 -156.39 0 0 70.84 130.24 0 0 77.38 -130.24 0 0 131.33 -91.55 0 0 -131.33 0 -77.38 0 -70.84 0 -77.38 0 -1.09zm699.46 199.31c27.16,0 54.31,0 81.47,0 2.16,-5.12 4.32,-10.24 4.94,-17.57 0.61,-7.33 -0.32,-16.88 -4.09,-25.91 -3.78,-9.03 -10.39,-17.53 -18.39,-23.88 -7.99,-6.36 -17.36,-10.57 -29.22,-13.99 -11.86,-3.42 -26.21,-6.06 -39.6,-7.33 -13.4,-1.27 -25.84,-1.18 -38.73,-0.23 -12.9,0.95 -26.25,2.77 -37.74,5.54 -11.49,2.77 -21.12,6.49 -29.88,11.49 -8.76,5 -16.67,11.26 -22.57,19.03 -5.9,7.77 -9.81,17.03 -11.76,26.38 -1.95,9.35 -1.95,18.8 -0.41,27.75 1.54,8.95 4.63,17.39 8.54,24.61 3.9,7.22 8.63,13.21 15.26,18.57 6.63,5.36 15.17,10.08 25.38,13.62 10.22,3.54 22.12,5.9 33.7,7.67 11.58,1.77 22.84,2.95 32.38,4.04 9.54,1.09 17.35,2.09 23.11,3.63 5.77,1.54 9.49,3.63 11.17,6.58 1.68,2.95 1.32,6.77 0.14,9.72 -1.18,2.95 -3.18,5.04 -6.59,6.54 -3.4,1.5 -8.22,2.41 -14.12,2.77 -5.9,0.36 -12.9,0.18 -18.8,-0.36 -5.9,-0.55 -10.72,-1.45 -14.62,-2.77 -3.9,-1.32 -6.9,-3.04 -9.08,-5.31 -2.18,-2.27 -3.54,-5.09 -4.9,-7.9 -27.52,0 -55.04,0 -82.56,0 0.09,5 0.18,9.99 1.14,16.26 0.95,6.27 2.77,13.81 6.08,20.57 3.32,6.77 8.13,12.76 13.72,17.8 5.58,5.04 11.94,9.13 19.84,12.81 7.9,3.68 17.35,6.95 29.25,9.4 11.9,2.45 26.25,4.09 40.55,4.49 14.3,0.41 28.56,-0.41 40.82,-1.77 12.26,-1.36 22.52,-3.27 32.65,-6.31 10.13,-3.04 20.12,-7.22 28.52,-13.24 8.4,-6.02 15.21,-13.89 19.3,-22.88 4.09,-8.99 5.45,-19.11 5.13,-28.43 -0.32,-9.33 -2.32,-17.86 -5.9,-25.9 -3.59,-8.04 -8.76,-15.58 -14.76,-21.52 -5.99,-5.95 -12.81,-10.31 -20.84,-14.08 -8.04,-3.77 -17.3,-6.95 -28.06,-9.22 -10.76,-2.27 -23.02,-3.63 -34.15,-5.18 -11.13,-1.54 -21.12,-3.27 -28.11,-4.89 -7,-1.62 -11.01,-3.13 -14,-5.03 -3,-1.91 -4.98,-4.21 -5.75,-7.23 -0.77,-3.01 -0.31,-6.74 0.78,-9.83 1.09,-3.09 2.82,-5.54 5.4,-7.49 2.59,-1.95 6.04,-3.41 10.44,-4.5 4.41,-1.09 9.76,-1.82 15.39,-1.77 5.63,0.05 11.53,0.86 16.3,2.36 4.77,1.5 8.4,3.68 10.9,5.9 2.5,2.22 3.86,4.5 4.54,6.58 0.68,2.09 0.68,4 0.2,5.7 -0.48,1.7 -1.44,3.2 -2.4,4.7zm-200.02 47.32c-0.09,-27.56 -0.09,-78.51 -0.09,-129.46 -25.34,0 -50.68,0 -76.02,0 0.18,4.63 0.36,9.26 0.55,13.89 -6.9,-4.54 -13.8,-9.08 -23.3,-12.53 -9.49,-3.45 -21.57,-5.81 -33.65,-6.63 -12.08,-0.82 -24.16,-0.09 -35.15,2.09 -10.99,2.18 -20.89,5.81 -29.88,11.99 -8.99,6.18 -17.07,14.89 -23.25,25.57 -6.18,10.67 -10.44,23.3 -12.58,37.42 -2.13,14.12 -2.13,29.74 -1.91,46.23 0.23,16.49 0.68,33.83 1.86,46.68 1.18,12.85 3.09,21.21 5.77,28.84 2.68,7.63 6.13,14.53 10.94,20.89 4.81,6.36 10.99,12.17 18.71,17.07 7.72,4.9 16.98,8.9 27.2,11.26 10.22,2.36 21.39,3.09 30.83,3.09 9.45,0 17.17,-0.73 24.84,-2.95 7.67,-2.22 15.3,-5.95 20.84,-9.63 5.54,-3.68 8.99,-7.31 12.21,-11.63 3.22,-4.31 6.22,-9.31 9.22,-14.3 2.09,4.45 4.18,8.9 7.22,13.12 3.04,4.22 7.04,8.22 11.94,11.85 4.9,3.63 10.72,6.9 18.03,9.31 7.31,2.41 16.12,3.95 24.66,4.27 8.54,0.32 16.8,-0.59 24.7,-2.68 7.9,-2.09 15.44,-5.36 20.62,-8.45 5.18,-3.09 7.99,-5.99 10.81,-8.9 -2.36,-18.71 -4.72,-37.42 -7.08,-56.13 -2.91,1.54 -5.81,3.09 -9.58,4.09 -3.77,1 -8.4,1.45 -12.4,1.27 -4,-0.18 -7.36,-1 -9.85,-2.72 -2.5,-1.73 -4.13,-4.36 -5.04,-7.77 -0.91,-3.41 -1.09,-7.58 -1.18,-35.15zm-85.37 -52.36c0,27.79 0,55.58 0,83.37 -3,3.45 -5.99,6.9 -10.85,9.58 -4.86,2.68 -11.58,4.59 -18.53,4.54 -6.95,-0.04 -14.12,-2.04 -19.44,-4.86 -5.31,-2.82 -8.76,-6.45 -11.17,-10.17 -2.41,-3.72 -3.77,-7.54 -4.54,-14.35 -0.77,-6.81 -0.95,-16.62 -0.95,-26.38 0,-9.76 0.18,-19.48 1.5,-26.79 1.32,-7.31 3.77,-12.21 7.31,-16.17 3.54,-3.95 8.17,-6.95 14.12,-8.67 5.95,-1.73 13.21,-2.18 19.3,-1.73 6.09,0.45 10.99,1.82 14.67,3.9 3.68,2.09 6.13,4.9 8.58,7.72zm751.95 50.27c50.41,0 100.81,0 151.22,0 0.36,-12.62 0.73,-25.25 -0.04,-37.92 -0.77,-12.67 -2.68,-25.38 -7.27,-37.37 -4.59,-11.99 -11.85,-23.25 -21.12,-32.11 -9.26,-8.85 -20.53,-15.3 -34.28,-19.89 -13.76,-4.59 -30.02,-7.31 -46.95,-7.81 -16.94,-0.5 -34.56,1.23 -49.59,4.59 -15.03,3.36 -27.47,8.35 -38.37,15.85 -10.9,7.49 -20.25,17.48 -26.61,29.24 -6.36,11.76 -9.72,25.29 -11.31,37.78 -1.59,12.49 -1.41,23.93 -1.14,37.87 0.27,13.94 0.64,30.38 1.45,42.23 0.82,11.85 2.09,19.12 4.4,26.2 2.32,7.08 5.68,13.99 9.67,20.03 4,6.04 8.63,11.22 14.99,16.21 6.36,5 14.44,9.81 24.43,13.62 9.99,3.81 21.89,6.63 34.92,8.31 13.03,1.68 27.2,2.22 41.19,1.36 13.99,-0.86 27.79,-3.13 39.87,-6.77 12.08,-3.63 22.43,-8.63 30.65,-14.89 8.22,-6.27 14.3,-13.81 18.98,-22.25 4.68,-8.45 7.95,-17.8 9.72,-26.11 1.77,-8.31 2.04,-15.58 2.32,-22.84 -27.52,0 -55.04,0 -82.56,0 -1.36,4.72 -2.73,9.45 -5.31,13.12 -2.59,3.68 -6.4,6.31 -10.35,7.95 -3.95,1.64 -8.04,2.27 -12.67,2.32 -4.63,0.04 -9.81,-0.5 -14.58,-2 -4.77,-1.5 -9.13,-3.95 -12.26,-7.08 -3.13,-3.13 -5.04,-6.95 -6.31,-11.53 -1.27,-4.59 -1.91,-9.94 -2.32,-14.76 -0.41,-4.81 -0.59,-9.08 -0.77,-13.35zm-0.14 -30.52c21.93,0 43.87,0 65.8,0 0.09,-4.31 0.18,-8.63 -0.39,-12.74 -0.57,-4.11 -1.79,-8.02 -4.18,-11.63 -2.38,-3.61 -5.93,-6.93 -9.97,-9.15 -4.04,-2.22 -8.58,-3.36 -13.1,-3.7 -4.52,-0.34 -9.01,0.11 -12.92,1.11 -3.9,1 -7.22,2.54 -10.06,4.49 -2.84,1.95 -5.2,4.31 -7.29,6.99 -2.09,2.68 -3.9,5.68 -5.15,8.74 -1.25,3.07 -1.93,6.2 -2.29,8.86 -0.36,2.66 -0.41,4.84 -0.45,7.02zm-343.05 -141.55l85.01 -37.33 0 81.47 136.78 0 0 71.38 -136.78 0 0 44.82c0.68,10.54 1.36,21.07 2.47,28.2 1.11,7.13 2.66,10.85 4.97,14.62 2.32,3.77 5.4,7.58 9.99,10.49 4.59,2.91 10.67,4.9 15.98,5.45 5.31,0.55 9.85,-0.36 13.58,-1.77 3.72,-1.41 6.63,-3.32 9.22,-5.9 2.59,-2.59 4.86,-5.86 6.72,-9.63 1.86,-3.77 3.32,-8.04 4.22,-13.49 0.91,-5.45 1.27,-12.08 1.64,-18.71 27.52,0 55.04,0 82.56,0 -0.09,6.72 -0.18,13.44 -0.86,21.66 -0.68,8.22 -1.95,17.94 -4.63,27.34 -2.68,9.4 -6.77,18.48 -12.21,26.88 -5.45,8.4 -12.26,16.12 -19.53,22.07 -7.26,5.95 -14.99,10.13 -23.57,13.49 -8.58,3.36 -18.03,5.9 -28.75,7.58 -10.72,1.68 -22.7,2.5 -33.92,2.32 -11.22,-0.18 -21.66,-1.36 -31.29,-3.13 -9.63,-1.77 -18.44,-4.13 -27.38,-8.17 -8.95,-4.04 -18.03,-9.76 -25.16,-16.12 -7.13,-6.36 -12.31,-13.35 -16.26,-20.75 -3.95,-7.4 -6.68,-15.21 -8.61,-24.59 -1.93,-9.38 -3.06,-20.32 -4.2,-31.27l0 -186.91zm611.81 76.7c4.45,-6.63 8.9,-13.26 15.08,-19.43 6.18,-6.18 14.08,-11.9 23.48,-15.44 9.4,-3.54 20.3,-4.9 32.51,-3.59 12.22,1.32 25.75,5.31 36.37,12.49 10.63,7.18 18.34,17.53 23.11,28.65 4.77,11.13 6.58,23.02 6.54,33.6 -0.04,10.58 -1.95,19.84 -4.4,27.52 -2.45,7.67 -5.45,13.76 -8.45,19.84 -25.43,0 -50.86,0 -76.29,0 3.36,-4.09 6.72,-8.17 8.49,-13.26 1.77,-5.09 1.95,-11.17 0.86,-16.67 -1.09,-5.49 -3.45,-10.4 -7.45,-13.85 -4,-3.45 -9.63,-5.45 -14.76,-5.99 -5.13,-0.55 -9.76,0.36 -13.37,1.61 -3.61,1.25 -6.2,2.84 -8.82,5.4 -2.41,2.35 -4.84,5.53 -7.46,10l0 157.96 -85.42 0 0 -240.99 79.97 0 0 32.15z"/>
  <path class="fil2" d="M1928.99 326.58l-136.78 0 0 -81.47 -85.01 37.33 0 186.91c1.13,10.94 2.27,21.89 4.2,31.27 1.93,9.38 4.65,17.19 8.61,24.59 3.95,7.4 9.13,14.4 16.26,20.75 7.13,6.36 16.21,12.08 25.16,16.12 8.95,4.04 17.76,6.4 27.38,8.17 9.63,1.77 20.07,2.95 31.29,3.13 11.22,0.18 23.2,-0.64 33.92,-2.32 10.72,-1.68 20.16,-4.22 28.74,-7.58 8.58,-3.36 16.3,-7.54 23.57,-13.49 7.27,-5.95 14.08,-13.67 19.53,-22.07 5.45,-8.4 9.54,-17.48 12.21,-26.88 2.68,-9.4 3.95,-19.12 4.63,-27.34 0.68,-8.22 0.77,-14.94 0.86,-21.66 -27.52,0 -55.04,0 -82.56,0 -0.36,6.63 -0.73,13.26 -1.64,18.71 -0.91,5.45 -2.36,9.72 -4.22,13.49 -1.86,3.77 -4.13,7.04 -6.72,9.63 -2.59,2.59 -5.5,4.5 -9.22,5.9 -3.72,1.41 -8.26,2.32 -13.58,1.77 -5.31,-0.55 -11.4,-2.54 -15.98,-5.45 -4.59,-2.91 -7.67,-6.72 -9.99,-10.49 -2.32,-3.77 -3.86,-7.49 -4.97,-14.62 -1.11,-7.13 -1.79,-17.66 -2.47,-28.2l0 -44.82 136.78 0 0 -71.38zm-618.76 129.28c-13.35,0 -26.7,0 -40.05,0 0,-18.53 0,-37.05 0,-55.58 43.69,0 87.37,0 131.06,0 0,16.08 0,32.15 0.04,44.55 0.05,12.4 0.14,21.11 -0.68,29.97 -0.82,8.86 -2.54,17.85 -5.22,26.66 -2.68,8.81 -6.31,17.44 -12.31,25.88 -5.99,8.45 -14.35,16.71 -24.2,23.3 -9.85,6.58 -21.21,11.49 -34.01,15.08 -12.81,3.59 -27.06,5.86 -41.05,6.86 -13.99,1 -27.7,0.73 -40.55,-0.45 -12.85,-1.18 -24.84,-3.27 -35.85,-6.22 -11.01,-2.95 -21.05,-6.77 -30.44,-12.81 -9.39,-6.04 -18.13,-14.3 -25.1,-24.34 -6.97,-10.04 -12.17,-21.84 -15.81,-34.65 -3.64,-12.81 -5.73,-26.61 -6.64,-39.96 -0.91,-13.35 -0.64,-26.25 -0.68,-44.86 -0.04,-18.62 -0.41,-42.96 -0.36,-60.71 0.04,-17.76 0.5,-28.93 1.77,-39.51 1.27,-10.58 3.36,-20.57 6.9,-30.34 3.54,-9.76 8.54,-19.3 14.62,-27.56 6.09,-8.26 13.26,-15.26 20.62,-20.8 7.36,-5.54 14.89,-9.63 24.16,-13.44 9.26,-3.82 20.25,-7.36 32.56,-9.4 12.31,-2.04 25.93,-2.59 39.46,-2.22 13.53,0.36 26.97,1.63 39.6,4.09 12.62,2.45 24.43,6.09 35.96,12.31 11.53,6.22 22.8,15.03 31.65,25.16 8.86,10.13 15.3,21.57 19.62,32.79 4.31,11.22 6.49,22.2 7.08,34.06 0.59,11.85 -0.41,24.57 -1.91,33.97 -1.5,9.4 -3.5,15.49 -5.49,21.57 -29.79,0 -59.58,0 -89.37,0 2.36,-5.9 4.72,-11.81 6.09,-18.48 1.36,-6.67 1.72,-14.12 0.32,-22.52 -1.41,-8.4 -4.59,-17.76 -8.81,-24.98 -4.22,-7.22 -9.49,-12.31 -15.89,-15.71 -6.4,-3.41 -13.94,-5.13 -22.39,-4.81 -8.45,0.32 -17.8,2.68 -24.89,6.63 -7.08,3.95 -11.9,9.49 -15.39,16.8 -3.5,7.31 -5.68,16.39 -6.63,38.42 -0.95,22.02 -0.68,56.99 -0.23,78.97 0.45,21.98 1.09,30.97 2.45,37.96 1.36,6.99 3.45,11.99 7.18,16.85 3.72,4.86 9.08,9.58 15.08,12.67 5.99,3.09 12.62,4.54 18.98,4.95 6.36,0.41 12.44,-0.23 17.76,-1.5 5.31,-1.27 9.85,-3.18 13.76,-5.59 3.91,-2.41 7.18,-5.31 9.63,-8.99 2.45,-3.68 4.09,-8.13 5.22,-12.26 1.13,-4.13 1.77,-7.95 2.41,-11.76zm211.16 -1.36c50.41,0 100.81,0 151.22,0 0.36,-12.62 0.73,-25.25 -0.05,-37.92 -0.77,-12.67 -2.68,-25.38 -7.27,-37.37 -4.59,-11.99 -11.85,-23.25 -21.11,-32.11 -9.26,-8.85 -20.53,-15.3 -34.28,-19.89 -13.76,-4.59 -30.02,-7.31 -46.96,-7.81 -16.94,-0.5 -34.56,1.23 -49.59,4.59 -15.03,3.36 -27.47,8.35 -38.37,15.85 -10.9,7.49 -20.25,17.48 -26.61,29.24 -6.36,11.76 -9.72,25.29 -11.31,37.78 -1.59,12.49 -1.41,23.93 -1.13,37.87 0.27,13.94 0.64,30.38 1.45,42.23 0.82,11.85 2.09,19.12 4.41,26.2 2.32,7.08 5.68,13.99 9.67,20.03 4,6.04 8.63,11.22 14.99,16.21 6.36,5 14.44,9.81 24.43,13.62 9.99,3.81 21.89,6.63 34.92,8.31 13.03,1.68 27.2,2.22 41.19,1.36 13.99,-0.86 27.79,-3.13 39.87,-6.77 12.08,-3.63 22.43,-8.63 30.65,-14.89 8.22,-6.27 14.3,-13.81 18.98,-22.25 4.68,-8.45 7.95,-17.8 9.72,-26.11 1.77,-8.31 2.04,-15.58 2.32,-22.84 -27.52,0 -55.04,0 -82.56,0 -1.36,4.72 -2.72,9.45 -5.31,13.12 -2.59,3.68 -6.4,6.31 -10.35,7.95 -3.95,1.64 -8.04,2.27 -12.67,2.32 -4.63,0.04 -9.81,-0.5 -14.58,-2 -4.77,-1.5 -9.13,-3.95 -12.26,-7.08 -3.13,-3.13 -5.04,-6.95 -6.31,-11.53 -1.27,-4.59 -1.91,-9.94 -2.32,-14.76 -0.41,-4.81 -0.59,-9.08 -0.77,-13.35zm-0.14 -30.52c21.93,0 43.87,0 65.8,0 0.09,-4.31 0.18,-8.63 -0.39,-12.74 -0.57,-4.11 -1.79,-8.02 -4.18,-11.63 -2.38,-3.61 -5.93,-6.93 -9.97,-9.15 -4.04,-2.22 -8.58,-3.36 -13.1,-3.7 -4.52,-0.34 -9.01,0.11 -12.92,1.11 -3.91,1 -7.22,2.54 -10.06,4.49 -2.84,1.95 -5.2,4.31 -7.29,6.99 -2.09,2.68 -3.91,5.68 -5.16,8.74 -1.25,3.07 -1.93,6.2 -2.29,8.86 -0.36,2.66 -0.41,4.84 -0.45,7.02z"/>
 </g>
</svg>
