<?xml version="1.0"?>
<svg xmlns="http://www.w3.org/2000/svg" preserveAspectRatio="none" xmlns:xlink="http://www.w3.org/1999/xlink" xmlns:svgjs="http://svgjs.com/svgjs" version="1.1" width="512" height="512" x="0" y="0" viewBox="0 0 510 510" style="enable-background:new 0 0 512 512" xml:space="preserve" class=""><g><g xmlns="http://www.w3.org/2000/svg"><path d="m160 292.5c0-12.406-10.093-22.5-22.5-22.5h-17.5v45h17.5c12.407 0 22.5-10.094 22.5-22.5z" fill="#95c77e" data-original="#000000" style="" class=""/><path d="m137.5 240c12.407 0 22.5-10.094 22.5-22.5s-10.093-22.5-22.5-22.5h-17.5v45z" fill="#95c77e" data-original="#000000" style="" class=""/><path d="m375 195c-13.785 0-25 11.215-25 25v70c0 13.785 11.215 25 25 25s25-11.215 25-25v-70c0-13.785-11.215-25-25-25z" fill="#95c77e" data-original="#000000" style="" class=""/><path d="m496.414 212.539c-3.652-7.072-7.103-13.753-8.741-19.881-1.752-6.556-2.141-14.324-2.553-22.548-.685-13.671-1.46-29.164-9.258-42.643-7.907-13.667-21.029-22.1-32.605-29.54-6.843-4.398-13.306-8.552-17.969-13.215s-8.816-11.126-13.214-17.97c-7.44-11.576-15.874-24.698-29.54-32.605-13.479-7.798-28.972-8.574-42.642-9.259-8.225-.411-15.994-.801-22.55-2.553-6.128-1.638-12.809-5.088-19.882-8.741-12.332-6.366-26.307-13.584-42.46-13.584s-30.128 7.217-42.458 13.585c-7.073 3.653-13.754 7.104-19.884 8.741-6.555 1.752-14.324 2.142-22.549 2.553-13.67.685-29.164 1.461-42.642 9.259-13.667 7.907-22.1 21.029-29.54 32.606-4.398 6.843-8.552 13.306-13.214 17.969-4.662 4.662-11.125 8.815-17.968 13.213-11.578 7.44-24.7 15.874-32.607 29.541-7.798 13.479-8.574 28.973-9.259 42.644-.412 8.225-.801 15.992-2.553 22.548-1.638 6.128-5.088 12.81-8.741 19.883-6.368 12.329-13.585 26.305-13.585 42.458 0 16.154 7.218 30.13 13.586 42.461 3.652 7.072 7.103 13.753 8.741 19.881 1.752 6.556 2.141 14.324 2.553 22.548.685 13.671 1.46 29.164 9.258 42.643 7.907 13.667 21.029 22.1 32.605 29.54 6.843 4.398 13.306 8.552 17.969 13.215s8.816 11.126 13.214 17.97c7.44 11.576 15.874 24.698 29.54 32.605 13.479 7.798 28.972 8.574 42.642 9.259 8.225.411 15.994.801 22.55 2.553 6.128 1.638 12.809 5.088 19.882 8.741 12.332 6.366 26.307 13.584 42.46 13.584s30.128-7.217 42.458-13.585c7.073-3.653 13.754-7.104 19.884-8.741 6.555-1.752 14.324-2.142 22.549-2.553 13.67-.685 29.164-1.461 42.642-9.259 13.667-7.907 22.1-21.029 29.54-32.606 4.398-6.843 8.552-13.306 13.214-17.969 4.662-4.662 11.125-8.815 17.968-13.213 11.578-7.44 24.7-15.874 32.607-29.541 7.798-13.479 8.574-28.973 9.259-42.644.412-8.225.801-15.992 2.553-22.548 1.638-6.128 5.088-12.81 8.741-19.883 6.368-12.329 13.585-26.305 13.585-42.458 0-16.154-7.218-30.13-13.586-42.461zm-241.414-137.539c41.739 0 82.421 14.613 114.552 41.149l-19.104 23.131c-26.767-22.105-60.664-34.28-95.448-34.28s-68.682 12.175-95.448 34.28l-19.104-23.131c32.13-26.536 72.812-41.149 114.552-41.149zm35 240v30h-70v-30h20v-120h-20v-30h70v30h-20v120zm-200 30v-180h47.5c28.949 0 52.5 23.552 52.5 52.5 0 14.679-6.063 27.963-15.808 37.5 9.745 9.537 15.808 22.821 15.808 37.5 0 28.948-23.551 52.5-52.5 52.5zm165 90c-44.361 0-86.979-16.279-120.004-45.838l20.008-22.354c27.516 24.629 63.028 38.192 99.996 38.192s72.48-13.563 99.996-38.191l20.008 22.354c-33.025 29.558-75.643 45.837-120.004 45.837zm175-145c0 30.327-24.673 55-55 55s-55-24.673-55-55v-70c0-30.327 24.673-55 55-55s55 24.673 55 55z" fill="#95c77e" data-original="#000000" style="" class=""/></g></g></svg>
